HIERARCHY
ROOT Hips
{
	OFFSET 0.000000 0.000000 0.000000
	CHANNELS 6 Xposition Yposition Zposition Zrotation Yrotation Xrotation 
	JOINT LHipJoint
	{
		OFFSET 0.000000 0.000000 0.000000
		CHANNELS 3 Zrotation Yrotation Xrotation
		JOINT LeftUpLeg
		{
			OFFSET 1.363060 -1.794630 0.839290
			CHANNELS 3 Zrotation Yrotation Xrotation
			JOINT LeftLeg
			{
				OFFSET 2.448110 -6.726130 0.000000
				CHANNELS 3 Zrotation Yrotation Xrotation
				JOINT LeftFoot
				{
					OFFSET 2.562200 -7.039590 0.000000
					CHANNELS 3 Zrotation Yrotation Xrotation
					JOINT LeftToeBase
					{
						OFFSET 0.157640 -0.433110 2.322550
						CHANNELS 3 Zrotation Yrotation Xrotation
						End Site
						{
							OFFSET 0.000000 0.000000 0.000000
						}
					}
				}
			}
		}
	}
	JOINT RHipJoint
	{
		OFFSET 0.000000 0.000000 0.000000
		CHANNELS 3 Zrotation Yrotation Xrotation
		JOINT RightUpLeg
		{
			OFFSET -1.305520 -1.794630 0.839290
			CHANNELS 3 Zrotation Yrotation Xrotation
			JOINT RightLeg
			{
				OFFSET -2.542530 -6.985550 0.000000
				CHANNELS 3 Zrotation Yrotation Xrotation
				JOINT RightFoot
				{
					OFFSET -2.568260 -7.056230 0.000000
					CHANNELS 3 Zrotation Yrotation Xrotation
					JOINT RightToeBase
					{
						OFFSET -0.164730 -0.452590 2.363150
						CHANNELS 3 Zrotation Yrotation Xrotation
						End Site
						{
							OFFSET 0.000000 0.000000 0.000000
						}
					}
				}
			}
		}
	}
	JOINT LowerBack
	{
		OFFSET 0.000000 0.000000 0.000000
		CHANNELS 3 Zrotation Yrotation Xrotation
		JOINT Spine
		{
			OFFSET 0.028270 2.035590 -0.193380
			CHANNELS 3 Zrotation Yrotation Xrotation
			JOINT Spine1
			{
				OFFSET 0.056720 2.048850 -0.042750
				CHANNELS 3 Zrotation Yrotation Xrotation
				JOINT Neck
				{
					OFFSET 0.000000 0.000000 0.000000
					CHANNELS 3 Zrotation Yrotation Xrotation
					JOINT Neck1
					{
						OFFSET -0.054170 1.746240 0.172020
						CHANNELS 3 Zrotation Yrotation Xrotation
						JOINT Head
						{
							OFFSET 0.104070 1.761360 -0.123970
							CHANNELS 3 Zrotation Yrotation Xrotation
							End Site
							{
								OFFSET 0.000000 0.000000 0.000000
							}
						}
					}
				}
				JOINT LeftShoulder
				{
					OFFSET 0.000000 0.000000 0.000000
					CHANNELS 3 Zrotation Yrotation Xrotation
					JOINT LeftArm
					{
						OFFSET 3.362410 1.200890 -0.311210
						CHANNELS 3 Zrotation Yrotation Xrotation
						JOINT LeftForeArm
						{
							OFFSET 4.983000 -0.000000 -0.000000
							CHANNELS 3 Zrotation Yrotation Xrotation
							JOINT LeftHand
							{
								OFFSET 3.483560 -0.000000 -0.000000
								CHANNELS 3 Zrotation Yrotation Xrotation
								JOINT LeftFingerBase
								{
									OFFSET 0.000000 0.000000 0.000000
									CHANNELS 3 Zrotation Yrotation Xrotation
									JOINT LeftHandIndex1
									{
										OFFSET 0.715260 -0.000000 -0.000000
										CHANNELS 3 Zrotation Yrotation Xrotation
										End Site
										{
											OFFSET 0.000000 0.000000 0.000000
										}
									}
								}
								JOINT LThumb
								{
									OFFSET 0.000000 0.000000 0.000000
									CHANNELS 3 Zrotation Yrotation Xrotation
									End Site
									{
										OFFSET 0.000000 0.000000 0.000000
									}
								}
							}
						}
					}
				}
				JOINT RightShoulder
				{
					OFFSET 0.000000 0.000000 0.000000
					CHANNELS 3 Zrotation Yrotation Xrotation
					JOINT RightArm
					{
						OFFSET -3.136600 1.374050 -0.404650
						CHANNELS 3 Zrotation Yrotation Xrotation
						JOINT RightForeArm
						{
							OFFSET -5.241900 -0.000000 -0.000000
							CHANNELS 3 Zrotation Yrotation Xrotation
							JOINT RightHand
							{
								OFFSET -3.444170 -0.000000 -0.000000
								CHANNELS 3 Zrotation Yrotation Xrotation
								JOINT RightFingerBase
								{
									OFFSET 0.000000 0.000000 0.000000
									CHANNELS 3 Zrotation Yrotation Xrotation
									JOINT RightHandIndex1
									{
										OFFSET -0.622530 -0.000000 -0.000000
										CHANNELS 3 Zrotation Yrotation Xrotation
										End Site
										{
											OFFSET 0.000000 0.000000 0.000000
										}
									}
								}
								JOINT RThumb
								{
									OFFSET 0.000000 0.000000 0.000000
									CHANNELS 3 Zrotation Yrotation Xrotation
									End Site
									{
										OFFSET 0.000000 0.000000 0.000000
									}
								}
							}
						}
					}
				}
			}
		}
	}
}
MOTION
Frames: 7
Frame Time: 0.008333
1.022841 18.014708 0.949675 -179.746178 -3.426180 179.838698 -1.192258 2.793425 2.976806 -18.089723 -12.420386 7.689176 -1.445074 -0.145059 1.824282 -0.328720 2.608100 0.893768 0.022800 0.974600 2.679000 -0.707409 -1.997125 0.677290 20.748505 1.081975 -2.385145 -1.138918 -6.520449 19.831625 0.709380 -6.229659 -7.579429 -0.039800 1.287300 -3.539700 0.876283 0.250259 5.196788 1.854691 0.477866 2.074929 -0.422596 0.118954 -4.248379 -13.088226 -6.963103 -18.171240 9.330934 -8.599076 19.986143 4.780800 -4.394100 14.076400 -6.247117 -0.254649 -1.604934 -85.447729 5.689190 23.903786 16.377635 -22.949797 -3.785825 -1.046759 -1.899707 4.724560 21.060160 21.471335 9.115200 -7.125000 0.000000 0.000000 -7.722200 54.877100 -1.881700 5.069801 1.244105 -0.932752 85.573274 -2.777109 19.586643 -18.235631 26.328893 -4.325562 0.272562 -0.080508 6.233395 -14.816256 7.118838 -1.926100 7.125000 0.000000 0.000000 8.546100 -22.588600 4.658400 
1.014227 18.013718 0.945417 -179.745822 -3.381222 179.896273 -1.196104 2.793538 2.971943 -18.129600 -12.558039 7.707726 -1.450372 -0.144929 1.819204 -0.342217 2.783473 0.828721 0.027100 1.063600 2.923900 -0.706286 -1.996787 0.679560 20.702199 1.097302 -2.440098 -1.138783 -6.518247 19.823799 0.697123 -6.152793 -7.551069 -0.035600 1.217900 -3.348500 0.876301 0.295647 5.217562 1.860424 0.539594 2.042266 -0.422410 0.149307 -4.308115 -13.132003 -6.964691 -18.225327 9.386803 -8.590508 20.024834 4.814500 -4.387900 14.111800 -6.248114 -0.250812 -1.606938 -85.483898 5.691703 23.983953 16.365698 -22.930388 -3.779722 -1.044971 -1.911183 4.731143 21.005031 21.642680 9.154600 -7.125000 0.000000 0.000000 -7.853900 55.054000 -1.947900 5.068387 1.248999 -0.933797 85.569850 -2.852669 19.468764 -18.271377 26.375384 -4.341883 0.272033 -0.079782 6.309574 -14.808394 7.073428 -1.912600 7.125000 0.000000 0.000000 8.554100 -22.636500 4.653400 
1.007000 18.013916 0.939972 -179.767830 -3.417308 179.977616 -1.202802 2.791457 2.964109 -18.190759 -12.778340 7.734136 -1.456182 -0.145735 1.811633 -0.353406 2.928372 0.767673 0.027100 1.062500 2.920900 -0.704017 -1.999419 0.684712 20.631848 1.067610 -2.517597 -1.136726 -6.512756 19.804178 0.683810 -6.075872 -7.552674 -0.031000 1.137300 -3.126600 0.822423 0.302670 5.165356 1.874130 0.542824 1.981462 -0.371887 0.154080 -4.365225 -13.097648 -6.909418 -18.137910 9.307042 -8.528243 20.028219 4.787100 -4.372500 14.077900 -6.241006 -0.253128 -1.610015 -85.523854 5.813435 24.065994 16.403270 -22.984706 -3.800782 -1.031285 -1.916028 4.618879 20.872937 21.640206 9.090300 -7.125000 0.000000 0.000000 -8.002200 55.025900 -1.979600 5.066909 1.239673 -0.938907 85.502534 -2.980678 19.466915 -18.285937 26.390925 -4.347661 0.272959 -0.079209 6.316496 -14.859030 7.027245 -1.906800 7.125000 0.000000 0.000000 8.518400 -22.682400 4.624500 
1.001752 18.016292 0.936012 -179.715080 -3.523435 -179.998522 -1.205182 2.796023 2.959907 -18.174494 -13.062653 7.809741 -1.462238 -0.144993 1.803055 -0.365844 3.090168 0.748553 0.026300 1.046700 2.877300 -0.703153 -2.002768 0.687461 20.674281 1.008173 -2.540177 -1.135688 -6.511152 19.799971 0.687687 -6.102893 -7.577311 -0.034700 1.202100 -3.305100 0.852452 0.287632 5.164052 1.881603 0.525780 1.927962 -0.373689 0.146425 -4.437186 -13.082090 -6.864378 -18.036170 9.285148 -8.497021 20.062329 4.782600 -4.368300 14.063000 -6.233706 -0.251861 -1.613536 -85.527516 5.946336 24.144946 16.452157 -23.057125 -3.826338 -1.022592 -1.930529 4.517105 20.812263 21.819744 9.128200 -7.125000 0.000000 0.000000 -8.148300 55.210300 -2.052700 5.065801 1.235126 -0.941069 85.479509 -3.039972 19.423966 -18.230078 26.315480 -4.320932 0.270521 -0.079930 6.362324 -14.762434 7.017230 -1.891400 7.125000 0.000000 0.000000 8.591000 -22.695400 4.662200 
0.997990 18.017381 0.932150 -179.732981 -3.630883 179.935543 -1.204465 2.803035 2.957413 -18.249642 -13.316894 7.988045 -1.467784 -0.144796 1.796199 -0.380527 3.278378 0.679538 0.035000 1.208400 3.322400 -0.702315 -2.005111 0.687255 20.646568 0.955688 -2.438272 -1.132129 -6.505224 19.781715 0.697758 -6.173037 -7.632312 -0.030800 1.133400 -3.116000 0.808331 0.264088 5.200683 1.870690 0.491747 1.953682 -0.359583 0.129181 -4.419064 -13.089171 -6.853026 -18.091143 9.340901 -8.496259 20.143225 4.808200 -4.364100 14.111700 -6.235937 -0.249677 -1.613647 -85.536534 5.927365 24.138915 16.455281 -23.060947 -3.826780 -1.025103 -1.938924 4.521950 20.839601 21.958483 9.193600 -7.125000 0.000000 0.000000 -8.177600 55.367400 -2.091400 5.068455 1.237726 -0.937966 85.493423 -2.942410 19.299105 -18.152126 26.211782 -4.283207 0.269857 -0.077974 6.504949 -14.736292 6.884568 -1.851900 7.125000 0.000000 0.000000 8.616100 -22.834600 4.648300 
0.993337 18.013916 0.928883 -179.753228 -3.684380 179.916376 -1.206054 2.806778 2.953823 -18.319877 -13.527955 8.112652 -1.473247 -0.144826 1.790318 -0.394576 3.455481 0.590937 0.041600 1.315700 3.617900 -0.702041 -2.007543 0.687979 20.618266 0.944197 -2.382211 -1.127197 -6.495873 19.751497 0.712462 -6.262481 -7.651389 -0.034600 1.200500 -3.300600 0.755806 0.229728 5.169945 1.876795 0.439936 1.986902 -0.318222 0.103802 -4.354636 -13.052987 -6.822854 -18.147192 9.320768 -8.445189 20.132831 4.801100 -4.337000 14.107300 -6.239877 -0.251947 -1.612724 -85.586853 5.892974 23.972490 16.438001 -23.033632 -3.816539 -1.020284 -1.936607 4.676483 20.694299 21.948020 9.118900 -7.125000 0.000000 0.000000 -8.335600 55.325400 -2.123700 5.072783 1.233182 -0.937542 85.481303 -2.853435 19.233940 -18.110565 26.157124 -4.263423 0.268753 -0.075644 6.635831 -14.685850 6.758361 -1.811100 7.125000 0.000000 0.000000 8.659200 -22.968200 4.645300 
0.987891 18.015005 0.925319 -179.720838 -3.697603 179.993786 -1.209258 2.808304 2.948305 -18.309211 -13.732405 8.123579 -1.478629 -0.144415 1.783184 -0.407247 3.610865 0.572541 0.034800 1.204500 3.311800 -0.702738 -2.009978 0.689546 20.654855 1.032991 -2.435562 -1.123427 -6.500654 19.755649 0.791023 -6.715848 -7.635916 -0.037700 1.253300 -3.446000 0.765117 0.220091 5.078527 1.876326 0.426297 1.968837 -0.321232 0.097523 -4.327849 -13.016369 -6.794913 -18.090727 9.319580 -8.408978 20.051741 4.798200 -4.316400 14.052400 -6.237616 -0.249748 -1.614084 -85.599834 5.958428 23.809785 16.453255 -23.056224 -3.824650 -1.010604 -1.923231 4.841486 20.520153 21.767898 8.966200 -7.125000 0.000000 0.000000 -8.454700 55.092000 -2.106300 5.073584 1.229080 -0.938975 85.509271 -2.847516 19.179295 -18.112198 26.160674 -4.265607 0.264297 -0.071334 6.771845 -14.490376 6.562444 -1.733400 7.125000 0.000000 0.000000 8.814800 -23.179300 4.687500 
